ModelForces
version=1
nRows=4
nColumns=155
inDegrees=no

This file contains the forces exerted on a model during a simulation.

A force is a generalized force, meaning that it can be either a force (N) or a torque (Nm).

Units are S.I. units (second, meters, Newtons, ...)
Angles are in degrees.

endheader
time	glut_med1_r	glut_med2_r	glut_med3_r	glut_min1_r	glut_min2_r	glut_min3_r	semimem_r	semiten_r	bifemlh_r	bifemsh_r	sar_r	add_long_r	add_brev_r	add_mag1_r	add_mag2_r	add_mag3_r	tfl_r	pect_r	grac_r	glut_max1_r	glut_max2_r	glut_max3_r	iliacus_r	psoas_r	quad_fem_r	gem_r	peri_r	rect_fem_r	vas_med_r	vas_int_r	vas_lat_r	med_gas_r	lat_gas_r	soleus_r	tib_post_r	flex_dig_r	flex_hal_r	tib_ant_r	per_brev_r	per_long_r	per_tert_r	ext_dig_r	ext_hal_r	glut_med1_l	glut_med2_l	glut_med3_l	glut_min1_l	glut_min2_l	glut_min3_l	semimem_l	semiten_l	bifemlh_l	bifemsh_l	sar_l	add_long_l	add_brev_l	add_mag1_l	add_mag2_l	add_mag3_l	tfl_l	pect_l	grac_l	glut_max1_l	glut_max2_l	glut_max3_l	iliacus_l	psoas_l	quad_fem_l	gem_l	peri_l	rect_fem_l	vas_med_l	vas_int_l	vas_lat_l	med_gas_l	lat_gas_l	soleus_l	tib_post_l	flex_dig_l	flex_hal_l	tib_ant_l	per_brev_l	per_long_l	per_tert_l	ext_dig_l	ext_hal_l	ercspn_r	ercspn_l	intobl_r	intobl_l	extobl_r	extobl_l	femur_lat_meniscii_r.femur_lat_r.force.X	femur_lat_meniscii_r.femur_lat_r.force.Y	femur_lat_meniscii_r.femur_lat_r.force.Z	femur_lat_meniscii_r.femur_lat_r.torque.X	femur_lat_meniscii_r.femur_lat_r.torque.Y	femur_lat_meniscii_r.femur_lat_r.torque.Z	femur_lat_meniscii_r.meniscus_lat_r.force.X	femur_lat_meniscii_r.meniscus_lat_r.force.Y	femur_lat_meniscii_r.meniscus_lat_r.force.Z	femur_lat_meniscii_r.meniscus_lat_r.torque.X	femur_lat_meniscii_r.meniscus_lat_r.torque.Y	femur_lat_meniscii_r.meniscus_lat_r.torque.Z	femur_med_meniscii_r.femur_med_r.force.X	femur_med_meniscii_r.femur_med_r.force.Y	femur_med_meniscii_r.femur_med_r.force.Z	femur_med_meniscii_r.femur_med_r.torque.X	femur_med_meniscii_r.femur_med_r.torque.Y	femur_med_meniscii_r.femur_med_r.torque.Z	femur_med_meniscii_r.meniscus_med_r.force.X	femur_med_meniscii_r.meniscus_med_r.force.Y	femur_med_meniscii_r.meniscus_med_r.force.Z	femur_med_meniscii_r.meniscus_med_r.torque.X	femur_med_meniscii_r.meniscus_med_r.torque.Y	femur_med_meniscii_r.meniscus_med_r.torque.Z	femur_med_tibia_r.tibia_upper_r.force.X	femur_med_tibia_r.tibia_upper_r.force.Y	femur_med_tibia_r.tibia_upper_r.force.Z	femur_med_tibia_r.tibia_upper_r.torque.X	femur_med_tibia_r.tibia_upper_r.torque.Y	femur_med_tibia_r.tibia_upper_r.torque.Z	femur_med_tibia_r.femur_med_r.force.X	femur_med_tibia_r.femur_med_r.force.Y	femur_med_tibia_r.femur_med_r.force.Z	femur_med_tibia_r.femur_med_r.torque.X	femur_med_tibia_r.femur_med_r.torque.Y	femur_med_tibia_r.femur_med_r.torque.Z	femur_lat_tibia_r.tibia_upper_r.force.X	femur_lat_tibia_r.tibia_upper_r.force.Y	femur_lat_tibia_r.tibia_upper_r.force.Z	femur_lat_tibia_r.tibia_upper_r.torque.X	femur_lat_tibia_r.tibia_upper_r.torque.Y	femur_lat_tibia_r.tibia_upper_r.torque.Z	femur_lat_tibia_r.femur_lat_r.force.X	femur_lat_tibia_r.femur_lat_r.force.Y	femur_lat_tibia_r.femur_lat_r.force.Z	femur_lat_tibia_r.femur_lat_r.torque.X	femur_lat_tibia_r.femur_lat_r.torque.Y	femur_lat_tibia_r.femur_lat_r.torque.Z	aACL_R	pACL_R	aPCL_R	pPCL_R	aMCL_R	mMCL_R	pMCL_R	aLCL_R	mLCL_R	pLCL_R	aPCL_L	pPCL_L	aMCL_L	aLCL_L
      0.20899345	      9.73011934	      7.16050605	      7.68709499	      3.32722922	      3.90450826	      4.11379950	      0.00000000	    164.02590948	    181.90724574	    339.24464420	    122.62627009	      7.11379210	      5.17119218	      3.68327185	      3.11366035	      5.18139431	      3.38894977	      2.80555526	     92.89013291	      4.62126697	      7.02748695	      5.26781836	     25.37047280	     16.04932936	      4.56058978	      3.29790585	      5.58098036	    112.90491876	     40.88272186	     31.85821972	     55.93418118	      0.00000000	      0.00000000	      0.00000000	      0.00000000	      0.00000000	      0.00000000	     35.69369814	      1.34340129	      3.12015182	     22.60168665	     48.66134326	     11.97207626	      9.73011934	      7.16050605	      7.68709499	      3.32722922	      3.90450826	      4.11379950	     10.57645515	      5.25208505	     10.27996278	      9.07583984	      1.89974333	      7.11379210	      5.17119218	      3.68327185	      3.11366035	      5.18139431	      4.83637248	      2.80555526	      1.95609193	      4.62126697	      7.02748695	      5.26781836	     25.37047280	     16.04932936	      4.56058978	      3.29790585	      5.58098036	     14.22739849	      0.00000000	      0.00000000	      0.00000000	     19.35795848	      9.04379078	     43.06277187	     47.31103297	      4.19457551	      3.65347454	     11.14741187	      5.89923694	     15.85330271	      2.48258727	      7.87842099	      2.52320281	     31.30775636	     31.30775636	     11.49180837	     11.49180837	     29.04599047	     29.04599047	    134.94072019	     84.03001313	      8.71546291	     -5.40528750	      3.14910818	     53.55567232	   -134.94072019	    -84.03001313	     -8.71546291	      2.19542255	     -3.74952386	      1.93127439	      0.06033523	      0.00082331	     -0.03779520	      0.01504334	     -0.00093744	      0.02399350	     -0.06033523	     -0.00082331	      0.03779520	     -0.00013772	      0.00179880	     -0.00017981	   -902.55375802	   -372.90962305	    319.20255068	     -8.36948138	     21.98742248	      2.22804784	    902.55375802	    372.90962305	   -319.20255068	    135.24392260	    -15.77344991	    363.77232915	   -318.97542887	   -143.48607124	    -87.96309471	      4.69287502	    -11.08017979	      1.06189496	    318.97542887	    143.48607124	     87.96309471	    -38.99116470	      7.83546397	    128.60479334	      0.45207620	      0.00000000	    963.74441802	    608.11239993	     23.58263385	      8.85596908	      0.00000000	      0.00000000	      0.00000000	      0.00000000	      0.00000000	      0.00000000	      0.00000001	      0.00000000
      0.20904339	      9.72869096	      7.15952998	      7.68603418	      3.32679476	      3.90403494	      4.11319557	      0.00000000	    164.06037974	    181.94135726	    339.28547095	    122.63129233	      7.11281097	      5.17052323	      3.68277352	      3.11322822	      5.18061067	      3.38853544	      2.80518640	     92.89913841	      4.62063571	      7.02652449	      5.26708462	     25.36868641	     16.04729745	      4.55998116	      3.29761294	      5.58020159	    113.30907897	     40.89454733	     31.84818212	     55.94948521	      0.00000000	      0.00000000	      0.00000000	      0.00000000	      0.00000000	      0.00000000	     35.69125002	      1.34053831	      3.11588693	     22.58041230	     48.63880396	     11.96490087	      9.72869096	      7.15952998	      7.68603418	      3.32679476	      3.90403494	      4.11319557	     10.57737388	      5.25131858	     10.27830266	      9.07462752	      1.89949643	      7.11281097	      5.17052323	      3.68277352	      3.11322822	      5.18061067	      4.83588751	      2.80518640	      1.95583321	      4.62063571	      7.02652449	      5.26708462	     25.36868641	     16.04729745	      4.55998116	      3.29761294	      5.58020159	     14.22508961	      0.00000000	      0.00000000	      0.00000000	     19.35557099	      9.04260613	     43.05564376	     47.30790715	      4.19307472	      3.65213296	     11.14565964	      5.89824091	     15.85125294	      2.48227374	      7.87772098	      2.52299718	     31.30365902	     31.30365902	     11.49017631	     11.49017631	     29.04451900	     29.04451900	    134.86352556	     84.20769583	      8.73288642	     -5.41639582	      3.14717327	     53.52117646	   -134.86352556	    -84.20769583	     -8.73288642	      2.20014253	     -3.74804413	      1.94195288	      0.05994179	      0.00080377	     -0.03744053	      0.01490194	     -0.00093031	      0.02383697	     -0.05994179	     -0.00080377	      0.03744053	     -0.00013585	      0.00178325	     -0.00017833	   -902.90844706	   -372.78584871	    319.50697080	     -8.36440058	     22.00238436	      2.23609359	    902.90844706	    372.78584871	   -319.50697080	    135.36224032	    -15.78051458	    363.91193434	   -318.96204012	   -143.56998413	    -87.95085856	      4.69327404	    -11.08020813	      1.07189871	    318.96204012	    143.56998413	     87.95085856	    -38.98725922	      7.83507151	    128.59578023	      0.40665589	      0.00000000	    964.14050213	    608.42495533	     23.54740423	      8.83989130	      0.00000000	      0.00000000	      0.00000000	      0.00000000	      0.00000000	      0.00000000	      0.00000001	      0.00000000
      0.20916441	      9.72523345	      7.15716735	      7.68346642	      3.32574313	      3.90288924	      4.11173372	      0.00000000	    164.14216367	    182.02095663	    339.36947023	    122.64131583	      7.11043606	      5.16890397	      3.68156725	      3.11218221	      5.17871384	      3.38754737	      2.80429354	     92.91925733	      4.61910773	      7.02419478	      5.26530856	     25.36436237	     16.04237916	      4.55850795	      3.29690395	      5.57831515	    113.77827333	     40.92142337	     31.86395111	     55.98322104	      0.00000000	      0.00000000	      0.00000000	      0.00000000	      0.00000000	      0.00000000	     35.68548421	      1.33360267	      3.10551270	     22.53856713	     48.58455723	     11.94766345	      9.72523345	      7.15716735	      7.68346642	      3.32574313	      3.90288924	      4.11173372	     10.57956785	      5.24946329	     10.27428391	      9.07169301	      1.89889879	      7.11043606	      5.16890397	      3.68156725	      3.11218221	      5.17871384	      4.83471363	      2.80429354	      1.95520696	      4.61910773	      7.02419478	      5.26530856	     25.36436237	     16.04237916	      4.55850795	      3.29690395	      5.57831515	     14.21950073	      0.00000000	      0.00000000	      0.00000000	     19.34978567	      9.03973592	     43.03838551	     47.30034029	      4.18943899	      3.64888566	     11.14141815	      5.89582982	     15.84629052	      2.48151484	      7.87602387	      2.52249824	     31.29374106	     31.29374106	     11.48622581	     11.48622581	     29.04095727	     29.04095727	    134.79046522	     80.97153343	      8.11522164	     -5.09761119	      3.14370010	     53.52673623	   -134.79046522	    -80.97153343	     -8.11522164	      2.11619557	     -3.72808725	      1.82420095	      0.05916162	      0.00086166	     -0.03693493	      0.01470105	     -0.00091796	      0.02352557	     -0.05916162	     -0.00086166	      0.03693493	     -0.00013325	      0.00175959	     -0.00017153	   -904.02850126	   -372.49017189	    319.52122989	     -8.34556901	     22.01311572	      2.25295580	    904.02850126	    372.49017189	   -319.52122989	    135.35717106	    -15.79242219	    364.35572148	   -319.03165892	   -143.44147531	    -87.87284582	      4.68600264	    -11.08069899	      1.08143120	    319.03165892	    143.44147531	     87.87284582	    -38.95137894	      7.83558349	    128.61988769	      0.26871654	      0.00000000	    965.11067433	    609.21353252	     23.44489579	      8.79095017	      0.00000000	      0.00000000	      0.00000000	      0.00000000	      0.00000000	      0.00000000	      0.00000001	      0.00000000
      0.20919444	      9.72437642	      7.15658172	      7.68282994	      3.32548246	      3.90260525	      4.11137137	      0.00000000	    164.16197766	    182.03986584	    339.38634652	    122.64327015	      7.10984739	      5.16850260	      3.68126824	      3.11192293	      5.17824367	      3.38730572	      2.80407222	     92.92381988	      4.61872898	      7.02361731	      5.26486833	     25.36329057	     16.04116007	      4.55814278	      3.29672822	      5.57784725	    113.84808667	     40.92764859	     31.87298632	     55.99085211	      0.00000000	      0.00000000	      0.00000000	      0.00000000	      0.00000000	      0.00000000	     35.68409980	      1.33188137	      3.10292881	     22.52952358	     48.57118396	     11.94342148	      9.72437642	      7.15658172	      7.68282994	      3.32548246	      3.90260525	      4.11137137	     10.58010515	      5.24900342	     10.27328770	      9.07096562	      1.89875065	      7.10984739	      5.16850260	      3.68126824	      3.11192293	      5.17824367	      4.83442266	      2.80407222	      1.95505173	      4.61872898	      7.02361731	      5.26486833	     25.36329057	     16.04116007	      4.55814278	      3.29672822	      5.57784725	     14.21811537	      0.00000000	      0.00000000	      0.00000000	     19.34835028	      9.03902389	     43.03410674	     47.29846453	      4.18853734	      3.64808077	     11.14036677	      5.89523215	     15.84506030	      2.48132673	      7.87560261	      2.52237430	     31.29128265	     31.29128265	     11.48524660	     11.48524660	     29.04007443	     29.04007443	    134.66118430	     81.04520476	      8.14812238	     -5.11290801	      3.14125103	     53.47304208	   -134.66118430	    -81.04520476	     -8.14812238	      2.11871980	     -3.72629346	      1.82998274	      0.05897171	      0.00087497	     -0.03681182	      0.01465212	     -0.00091495	      0.02344977	     -0.05897171	     -0.00087497	      0.03681182	     -0.00013261	      0.00175383	     -0.00016989	   -904.21353881	   -372.61361338	    319.59166857	     -8.34387830	     22.01741371	      2.26596478	    904.21353881	    372.61361338	   -319.59166857	    135.38580657	    -15.79494764	    364.42571914	   -319.01564416	   -143.50733366	    -87.86879718	      4.68665509	    -11.08065539	      1.08818023	    319.01564416	    143.50733366	     87.86879718	    -38.95070454	      7.83522137	    128.61100490	      0.22980187	      0.00000000	    965.35468519	    609.41802641	     23.41948959	      8.77990476	      0.00000000	      0.00000000	      0.00000000	      0.00000000	      0.00000000	      0.00000000	      0.00000001	      0.00000000
